<?xml version="1.0" standalone="no"?>
<!DOCTYPE svg PUBLIC "-//W3C//DTD SVG 20010904//EN"
 "http://www.w3.org/TR/2001/REC-SVG-20010904/DTD/svg10.dtd">
<svg version="1.0" xmlns="http://www.w3.org/2000/svg"
 width="451.000000pt" height="451.000000pt" viewBox="0 0 451.000000 451.000000"
 preserveAspectRatio="xMidYMid meet">
<metadata>
Created by potrace 1.14, written by Peter Selinger 2001-2017
</metadata>
<g transform="translate(0.000000,451.000000) scale(0.100000,-0.100000)"
fill="#000000" stroke="none">
<path d="M2245 3862 c-5 -4 -11 -11 -11 -17 -1 -5 -28 -118 -59 -250 -31 -132
-59 -251 -61 -264 -3 -14 -7 -28 -9 -32 -3 -4 -7 -24 -11 -45 -3 -22 -15 -70
-26 -109 -11 -38 -21 -81 -22 -95 -11 -93 -30 -118 -134 -177 -56 -31 -212
-88 -212 -77 0 2 -12 -1 -27 -7 -29 -11 -212 -13 -283 -3 -25 3 -74 13 -110
21 -36 7 -74 16 -85 18 -29 5 -59 12 -150 34 -44 11 -91 22 -105 25 -14 3 -45
10 -70 17 -25 6 -52 12 -61 14 -9 2 -32 8 -52 13 -34 10 -35 9 -45 -27 -19
-60 -26 -91 -38 -151 -3 -14 -11 -50 -19 -80 -8 -30 -31 -125 -51 -210 -20
-85 -45 -186 -54 -225 -17 -70 -15 -87 16 -91 9 -2 37 -8 63 -14 25 -6 55 -12
66 -15 11 -2 45 -10 75 -18 50 -13 124 -31 175 -42 11 -2 81 -18 155 -35 74
-17 146 -33 160 -36 14 -2 31 -7 39 -10 87 -30 281 -59 396 -57 75 1 81 3 105
31 22 26 93 107 140 160 20 22 115 101 160 133 128 90 333 182 430 195 19 2
42 7 50 9 8 2 31 7 50 10 19 3 42 13 51 21 23 21 97 176 113 239 2 6 6 17 9
25 5 13 33 119 42 160 11 48 80 344 106 450 17 69 32 132 34 140 2 8 8 33 13
55 6 22 13 52 16 68 3 15 7 36 11 46 7 24 -9 33 -90 50 -33 8 -75 18 -93 23
-18 5 -43 11 -55 13 -25 4 -46 9 -102 23 -22 6 -51 13 -65 16 -14 3 -42 10
-62 15 -21 5 -38 7 -38 4 0 -3 -7 0 -15 7 -8 7 -15 10 -15 7 0 -3 -29 3 -65
13 -36 10 -68 19 -70 19 -7 -1 -65 11 -85 17 -8 2 -19 0 -25 -4z"/>
<path d="M1370 3693 c-252 -85 -277 -430 -40 -549 26 -13 57 -25 68 -27 12 -2
24 -5 27 -8 12 -12 138 12 183 35 66 33 128 107 148 175 19 63 14 157 -10 213
-22 51 -92 121 -148 147 -60 28 -166 35 -228 14z"/>
<path d="M2718 2395 c-2 -2 -30 -6 -63 -10 -51 -5 -108 -16 -150 -29 -5 -1
-30 -8 -54 -15 -25 -7 -78 -28 -119 -47 -40 -19 -76 -34 -79 -34 -9 0 -148
-95 -164 -112 -9 -10 -20 -18 -24 -18 -15 0 -154 -150 -201 -217 -27 -37 -52
-69 -56 -71 -5 -2 -8 -12 -8 -22 0 -10 -5 -22 -10 -25 -12 -7 -53 -94 -53
-112 0 -7 -3 -13 -7 -13 -6 0 -34 -81 -45 -128 -2 -9 -11 -44 -19 -78 -8 -34
-17 -72 -20 -85 -2 -13 -11 -51 -19 -84 -9 -33 -18 -71 -20 -85 -3 -14 -13
-54 -22 -90 -9 -36 -19 -76 -21 -90 -3 -14 -10 -43 -16 -65 -7 -22 -12 -43
-14 -47 -1 -5 -2 -9 -3 -10 -2 -2 -4 -14 -6 -28 -2 -14 -15 -74 -30 -133 -15
-59 -25 -111 -22 -113 5 -6 126 -39 172 -48 11 -3 52 -12 90 -21 39 -9 81 -19
94 -21 14 -3 28 -7 31 -9 4 -2 20 -7 36 -9 16 -3 38 -8 49 -11 11 -2 58 -14
105 -25 47 -11 94 -23 105 -26 11 -4 40 -7 65 -8 37 -1 45 2 47 19 2 11 8 36
13 55 17 66 31 125 35 145 2 11 4 20 5 20 1 0 3 7 5 15 3 18 28 132 31 143 1
4 2 8 4 10 1 1 3 9 5 18 3 19 35 156 41 179 2 8 15 65 29 125 14 61 27 117 29
125 2 8 7 26 11 41 12 48 175 136 310 167 81 19 262 23 345 7 71 -13 250 -55
273 -64 14 -6 27 -8 30 -5 2 2 16 0 31 -6 27 -10 34 -12 121 -31 28 -6 55 -12
60 -13 132 -33 140 -32 149 14 17 90 99 428 107 443 6 11 8 21 5 24 -2 3 -1
16 5 30 5 13 11 36 14 51 3 15 7 36 9 47 26 112 29 136 20 145 -8 8 -93 29
-224 56 -14 3 -41 9 -60 14 -19 5 -46 11 -60 14 -74 16 -121 27 -285 66 -99
23 -191 44 -205 47 -40 8 -44 9 -65 15 -48 15 -325 34 -337 23z"/>
</g>
</svg>
